<svg width="111" height="20" viewBox="0 0 111 20" fill="none" xmlns="http://www.w3.org/2000/svg">
<path d="M0.2 0.4H17.875V4.775H6.15V7.8H17.525V12.275H6.15V19H0.2V0.4ZM27.0367 0.0249984V3.675H21.3117V0.0249984H27.0367ZM27.0117 5.075V19H21.3367V5.075H27.0117ZM36.582 0.0749993V19H30.907V0.0749993H36.582ZM51.0273 19H46.1023C44.9523 19 44.044 18.6833 43.3773 18.05C42.7107 17.4167 42.3773 16.4917 42.3773 15.275V8.925H39.4523V5.075H42.3773V0.874999H48.0023V5.075H51.0273V8.925H48.0023V13.4C48.0023 13.95 48.094 14.3333 48.2773 14.55C48.4773 14.7667 48.8523 14.875 49.4023 14.875H51.0273V19ZM54.2713 19V5.075H59.8963V7.35C60.2796 6.71667 60.7463 6.2 61.2963 5.8C62.213 5.11667 63.3213 4.775 64.6213 4.775H64.7963C66.4796 4.775 67.738 5.30833 68.5713 6.375C69.288 7.29167 69.6463 8.59167 69.6463 10.275C69.6463 10.7083 69.6296 11.3083 69.5963 12.075H63.8713V11.65C63.8713 10.7667 63.7296 10.1083 63.4463 9.675C63.1796 9.24167 62.7046 9.025 62.0213 9.025C61.338 9.025 60.8213 9.25833 60.4713 9.725C60.1213 10.1917 59.9463 10.8583 59.9463 11.725V19H54.2713ZM81.0301 19.375C78.5467 19.375 76.5717 18.9417 75.1051 18.075C73.9051 17.3917 73.0301 16.4417 72.4801 15.225C72.0967 14.375 71.9051 13.3917 71.9051 12.275V11.925C71.9051 10.825 72.0967 9.83333 72.4801 8.95C73.0301 7.71667 73.8967 6.74167 75.0801 6.025C76.5467 5.14167 78.5217 4.7 81.0051 4.7H81.8551C84.4051 4.7 86.4217 5.14167 87.9051 6.025C89.0884 6.725 89.9301 7.7 90.4301 8.95C90.7634 9.85 90.9301 10.8333 90.9301 11.9V12.3C90.9301 13.3667 90.7634 14.3417 90.4301 15.225C89.9467 16.425 89.0967 17.375 87.8801 18.075C86.4134 18.9417 84.3967 19.375 81.8301 19.375H81.0301ZM81.5301 15.45C82.7801 15.45 83.7134 15.0417 84.3301 14.225C84.7967 13.625 85.0301 12.875 85.0301 11.975C85.0301 11.075 84.7967 10.325 84.3301 9.725C83.7301 8.95833 82.7967 8.575 81.5301 8.575H81.3051C79.9884 8.575 79.0467 8.95833 78.4801 9.725C78.0301 10.3083 77.8051 11.0583 77.8051 11.975C77.8051 12.8917 78.0301 13.65 78.4801 14.25C79.0467 15.05 79.9884 15.45 81.3051 15.45H81.5301ZM101.266 19.325C99.0156 19.325 97.224 19.0333 95.8906 18.45C94.874 18 94.1406 17.3583 93.6906 16.525C93.4073 16.0083 93.2656 15.4083 93.2656 14.725V14.625H99.3406C99.3906 14.9583 99.549 15.2333 99.8156 15.45C100.232 15.7833 100.907 15.95 101.841 15.95H101.891C102.757 15.95 103.407 15.8333 103.841 15.6C104.157 15.4333 104.316 15.1667 104.316 14.8C104.316 14.4333 104.174 14.1667 103.891 14C103.591 13.8167 102.907 13.6917 101.841 13.625L99.7656 13.475C97.4823 13.3583 95.8156 12.8833 94.7656 12.05C93.8823 11.35 93.4406 10.3917 93.4406 9.175V9.025C93.4406 8.39167 93.5573 7.825 93.7906 7.325C94.024 6.825 94.4156 6.39167 94.9656 6.025C96.2323 5.19167 98.3156 4.775 101.216 4.775H101.841C105.007 4.775 107.241 5.25 108.541 6.2C109.474 6.88333 109.941 7.85833 109.941 9.125V9.175H104.041C104.041 9.15833 104.007 9.05833 103.941 8.875C103.891 8.69167 103.766 8.525 103.566 8.375C103.199 8.09167 102.549 7.95 101.616 7.95H101.516C100.599 7.95 99.974 8.04167 99.6406 8.225C99.324 8.425 99.1656 8.68333 99.1656 9C99.1656 9.35 99.3323 9.61667 99.6656 9.8C100.032 10.0167 100.649 10.1333 101.516 10.15L103.541 10.225C106.041 10.325 107.807 10.75 108.841 11.5C109.324 11.85 109.666 12.2667 109.866 12.75C110.082 13.2167 110.191 13.7667 110.191 14.4V14.625C110.191 15.2917 110.091 15.8917 109.891 16.425C109.691 16.9583 109.316 17.425 108.766 17.825C107.466 18.825 105.191 19.325 101.941 19.325H101.266Z" fill="#FFD600"/>
</svg>
