<svg width="144" height="22" viewBox="0 0 144 22" fill="none" xmlns="http://www.w3.org/2000/svg">
<path d="M0.665551 1.01234H19.7546V5.73734H7.09155V9.00434H19.3766V13.8373H7.09155V21.1003H0.665551V1.01234ZM32.5382 21.5053C29.8562 21.5053 27.7232 21.0373 26.1392 20.1013C24.8432 19.3633 23.8982 18.3373 23.3042 17.0233C22.8902 16.1053 22.6832 15.0433 22.6832 13.8373V13.4593C22.6832 12.2713 22.8902 11.2003 23.3042 10.2463C23.8982 8.91434 24.8342 7.86134 26.1122 7.08734C27.6962 6.13334 29.8292 5.65634 32.5112 5.65634H33.4292C36.1832 5.65634 38.3612 6.13334 39.9632 7.08734C41.2412 7.84334 42.1502 8.89634 42.6902 10.2463C43.0502 11.2183 43.2302 12.2803 43.2302 13.4323V13.8643C43.2302 15.0163 43.0502 16.0693 42.6902 17.0233C42.1682 18.3193 41.2502 19.3453 39.9362 20.1013C38.3522 21.0373 36.1742 21.5053 33.4022 21.5053H32.5382ZM33.0782 17.2663C34.4282 17.2663 35.4362 16.8253 36.1022 15.9433C36.6062 15.2953 36.8582 14.4853 36.8582 13.5133C36.8582 12.5413 36.6062 11.7313 36.1022 11.0833C35.4542 10.2553 34.4462 9.84134 33.0782 9.84134H32.8352C31.4132 9.84134 30.3962 10.2553 29.7842 11.0833C29.2982 11.7133 29.0552 12.5233 29.0552 13.5133C29.0552 14.5033 29.2982 15.3223 29.7842 15.9703C30.3962 16.8343 31.4132 17.2663 32.8352 17.2663H33.0782ZM55.6886 21.5053C53.0066 21.5053 50.8736 21.0373 49.2896 20.1013C47.9936 19.3633 47.0486 18.3373 46.4546 17.0233C46.0406 16.1053 45.8336 15.0433 45.8336 13.8373V13.4593C45.8336 12.2713 46.0406 11.2003 46.4546 10.2463C47.0486 8.91434 47.9846 7.86134 49.2626 7.08734C50.8466 6.13334 52.9796 5.65634 55.6616 5.65634H56.5796C59.3336 5.65634 61.5116 6.13334 63.1136 7.08734C64.3916 7.84334 65.3006 8.89634 65.8406 10.2463C66.2006 11.2183 66.3806 12.2803 66.3806 13.4323V13.8643C66.3806 15.0163 66.2006 16.0693 65.8406 17.0233C65.3186 18.3193 64.4006 19.3453 63.0866 20.1013C61.5026 21.0373 59.3246 21.5053 56.5526 21.5053H55.6886ZM56.2286 17.2663C57.5786 17.2663 58.5866 16.8253 59.2526 15.9433C59.7566 15.2953 60.0086 14.4853 60.0086 13.5133C60.0086 12.5413 59.7566 11.7313 59.2526 11.0833C58.6046 10.2553 57.5966 9.84134 56.2286 9.84134H55.9856C54.5636 9.84134 53.5466 10.2553 52.9346 11.0833C52.4486 11.7133 52.2056 12.5233 52.2056 13.5133C52.2056 14.5033 52.4486 15.3223 52.9346 15.9703C53.5466 16.8343 54.5636 17.2663 55.9856 17.2663H56.2286ZM89.207 0.661341V21.1003H83.078V19.2373C82.682 19.7233 82.106 20.1553 81.35 20.5333C80.198 21.1093 78.866 21.3973 77.354 21.3973H77.03C74.348 21.3973 72.305 20.6053 70.901 19.0213C70.271 18.3373 69.803 17.5543 69.497 16.6723C69.209 15.7723 69.065 14.8363 69.065 13.8643V13.3243C69.065 12.3703 69.209 11.4433 69.497 10.5433C69.803 9.64334 70.253 8.85134 70.847 8.16734C72.269 6.56534 74.312 5.76434 76.976 5.76434H77.3C78.722 5.76434 80.036 5.98934 81.242 6.43934C81.8 6.63734 82.232 6.86234 82.538 7.11434C82.862 7.34834 83.042 7.48334 83.078 7.51934V0.661341H89.207ZM79.109 10.0033C77.777 10.0033 76.796 10.3993 76.166 11.1913C75.662 11.7853 75.41 12.5593 75.41 13.5133V13.5943C75.41 14.4943 75.662 15.2593 76.166 15.8893C76.832 16.7173 77.813 17.1313 79.109 17.1313H79.379C80.657 17.1313 81.629 16.7353 82.295 15.9433C82.565 15.6193 82.763 15.2503 82.889 14.8363C83.033 14.4223 83.105 14.0083 83.105 13.5943V13.5133C83.105 13.0993 83.033 12.6853 82.889 12.2713C82.763 11.8573 82.565 11.4883 82.295 11.1643C81.647 10.3903 80.675 10.0033 79.379 10.0033H79.109ZM99.575 0.60734V4.54934H93.392V0.60734H99.575ZM99.548 6.06134V21.1003H93.419V6.06134H99.548ZM123.114 16.2943C123.078 17.0143 122.871 17.6803 122.493 18.2923C121.971 19.1923 121.08 19.9123 119.82 20.4523C118.236 21.1363 116.229 21.4783 113.799 21.4783H112.692C109.092 21.4783 106.482 20.6233 104.862 18.9133C103.602 17.5993 102.972 15.8893 102.972 13.7833V13.4053C102.972 11.2813 103.584 9.56234 104.808 8.24834C106.374 6.55634 108.885 5.71034 112.341 5.71034H113.529C117.255 5.71034 119.892 6.59234 121.44 8.35634C122.088 9.11234 122.538 9.98534 122.79 10.9753C123.042 11.9473 123.168 13.0273 123.168 14.2153V14.7553H109.263C109.407 15.6373 109.785 16.3213 110.397 16.8073C111.063 17.3293 112.08 17.5903 113.448 17.5903C114.636 17.5903 115.509 17.4103 116.067 17.0503C116.301 16.9243 116.463 16.7803 116.553 16.6183L116.715 16.2943H123.114ZM113.016 9.35534C111.846 9.35534 110.982 9.57134 110.424 10.0033C109.866 10.4173 109.506 11.0203 109.344 11.8123H116.634C116.634 11.1103 116.409 10.5613 115.959 10.1653C115.329 9.62534 114.348 9.35534 113.016 9.35534ZM134.312 21.4513C131.882 21.4513 129.947 21.1363 128.507 20.5063C127.409 20.0203 126.617 19.3273 126.131 18.4273C125.825 17.8693 125.672 17.2213 125.672 16.4833V16.3753H132.233C132.287 16.7353 132.458 17.0323 132.746 17.2663C133.196 17.6263 133.925 17.8063 134.933 17.8063H134.987C135.923 17.8063 136.625 17.6803 137.093 17.4283C137.435 17.2483 137.606 16.9603 137.606 16.5643C137.606 16.1683 137.453 15.8803 137.147 15.7003C136.823 15.5023 136.085 15.3673 134.933 15.2953L132.692 15.1333C130.226 15.0073 128.426 14.4943 127.292 13.5943C126.338 12.8383 125.861 11.8033 125.861 10.4893V10.3273C125.861 9.64334 125.987 9.03134 126.239 8.49134C126.491 7.95134 126.914 7.48334 127.508 7.08734C128.876 6.18734 131.126 5.73734 134.258 5.73734H134.933C138.353 5.73734 140.765 6.25034 142.169 7.27634C143.177 8.01434 143.681 9.06734 143.681 10.4353V10.4893H137.309C137.309 10.4713 137.273 10.3633 137.201 10.1653C137.147 9.96734 137.012 9.78734 136.796 9.62534C136.4 9.31934 135.698 9.16634 134.69 9.16634H134.582C133.592 9.16634 132.917 9.26534 132.557 9.46334C132.215 9.67934 132.044 9.95834 132.044 10.3003C132.044 10.6783 132.224 10.9663 132.584 11.1643C132.98 11.3983 133.646 11.5243 134.582 11.5423L136.769 11.6233C139.469 11.7313 141.377 12.1903 142.493 13.0003C143.015 13.3783 143.384 13.8283 143.6 14.3503C143.834 14.8543 143.951 15.4483 143.951 16.1323V16.3753C143.951 17.0953 143.843 17.7433 143.627 18.3193C143.411 18.8953 143.006 19.3993 142.412 19.8313C141.008 20.9113 138.551 21.4513 135.041 21.4513H134.312Z" fill="white"/>
</svg>
